<?xml version="1.0" encoding="UTF-8" standalone="no"?>
<!DOCTYPE svg PUBLIC "-//W3C//DTD SVG 1.1//EN" "http://www.w3.org/Graphics/SVG/1.1/DTD/svg11.dtd">
<svg width="100%" height="100%" viewBox="0 0 1216 1118" version="1.1" xmlns="http://www.w3.org/2000/svg" xmlns:xlink="http://www.w3.org/1999/xlink" xml:space="preserve" xmlns:serif="http://www.serif.com/" style="fill-rule:evenodd;clip-rule:evenodd;stroke-linejoin:round;stroke-miterlimit:2;">
    <rect id="ArtBoard1" x="0" y="0" width="1215.22" height="1117.01" style="fill:none;"/>
    <g>
        <path d="M887.36,856.248L887.36,521.923C887.36,507.507 883.868,493.29 877.177,480.515L844.052,417.207C839.968,409.398 837.268,400.957 836.06,392.232L805.768,173.365L741.227,173.365L710.935,392.232C709.727,400.957 707.027,409.398 702.943,417.207L669.818,480.515C663.127,493.29 659.635,507.507 659.635,521.923L659.635,856.248C645.443,889.615 648.193,917.54 652.818,934.798C655.068,943.206 662.668,949.048 671.377,949.048L875.618,949.048C884.327,949.048 891.927,943.206 894.177,934.798C898.802,917.54 901.552,889.615 887.36,856.248" style="fill:#444;fill-rule:nonzero;"/>
        <g>
            <path d="M691.8,912.515C687.175,895.257 684.425,867.332 698.617,833.965L698.617,521.924C698.617,507.499 702.117,493.291 708.8,480.516L741.925,417.199C746.008,409.399 748.717,400.957 749.917,392.232L769.075,173.366L760.717,173.366L730.425,392.232C729.217,400.957 726.517,409.399 722.433,417.199L689.308,480.516C682.617,493.291 679.125,507.499 679.125,521.924L679.125,833.965C664.933,867.332 667.683,895.257 672.308,912.515C674.558,920.924 682.158,926.774 690.867,926.774L710.358,926.774C701.658,926.774 694.05,920.924 691.8,912.515" style="fill:#fff;fill-rule:nonzero;"/>
        </g>
        <g>
            <path d="M810.59,197.057L736.398,197.057C731.057,197.057 726.732,192.732 726.732,187.39C726.732,182.057 731.057,177.732 736.398,177.732L810.59,177.732C815.923,177.732 820.257,182.057 820.257,187.39C820.257,192.732 815.923,197.057 810.59,197.057" style="fill:#da7817;fill-rule:nonzero;"/>
        </g>
        <g>
            <path d="M813.76,185.116L733.235,185.116L733.235,179.766C733.235,166.866 743.702,156.408 756.602,156.408L790.402,156.408C803.302,156.408 813.76,166.866 813.76,179.766L813.76,185.116Z" style="fill:#f6b484;fill-rule:nonzero;"/>
        </g>
        <g>
            <path d="M926.83,75.121L847.53,159.037L878.73,180.079L926.83,75.121Z" style="fill:#f4a56a;fill-rule:nonzero;"/>
        </g>
        <g>
            <path d="M602.6,103.587L671.467,196.254L697.617,169.179L602.6,103.587Z" style="fill:#f4a56a;fill-rule:nonzero;"/>
        </g>
        <g>
            <path d="M671.88,64L699.28,121.717L718.305,107.892L671.88,64Z" style="fill:#f4a56a;fill-rule:nonzero;"/>
        </g>
        <g>
            <path d="M1013.73,860.775C1001.91,881.017 981.88,911.017 958.322,910.225C962.538,903.584 965.48,903.675 956.113,908.017C963.213,876.734 999.488,886.75 1013.73,860.775" style="fill:#f6b484;fill-rule:nonzero;"/>
        </g>
        <g>
            <path d="M814.86,912.407C798.235,939.082 773.027,967.207 746.168,966.832C751.793,957.44 755.085,960.099 743.768,961.849C758.435,927.165 792.035,944.982 814.86,912.407" style="fill:#f6b484;fill-rule:nonzero;"/>
        </g>
        <g>
            <path d="M772.93,916.877C757.488,936.452 720.188,970.277 696.938,958.81C708.705,954.494 707.897,952.877 695.688,957.552C712.205,922.327 748.263,947.927 772.93,916.877" style="fill:#f6b484;fill-rule:nonzero;"/>
        </g>
        <g>
            <path d="M954.3,865.71C950.125,878.019 954.042,911.569 926.175,926.977C929.8,918.394 930.3,918.385 923.292,926.002C916.142,903.71 955.492,887.277 954.3,865.71" style="fill:#f6b484;fill-rule:nonzero;"/>
        </g>
        <g>
            <path d="M928.03,936.34C945.122,912.507 969.997,932.915 990.313,914.257C973.622,931.474 948.513,945.39 928.963,939.29C934.963,934.307 938.213,934.849 928.03,936.34" style="fill:#f6b484;fill-rule:nonzero;"/>
        </g>
        <g>
            <path d="M881.22,950.07C886.037,941.729 888.653,941.054 879.17,947.979C875.512,922.562 920.353,909.362 920.203,885.587C912.32,908.679 910.753,938.687 881.22,950.07" style="fill:#f6b484;fill-rule:nonzero;"/>
        </g>
        <g>
            <path d="M958.288,946.295C963.557,947.692 943.176,951.505 938.694,953.303C922.272,959.977 905.524,966.819 890.383,958.153C896.303,954.902 899.023,955.409 889.436,955.103C908.587,934.265 935.871,958.406 958.288,946.295" style="fill:#f6b484;fill-rule:nonzero;"/>
        </g>
        <g>
            <path d="M881.83,906.692C875.697,918.417 864.163,958.034 837.13,961.967C840.13,955.142 844.063,952.142 835.13,959.95C835.113,933.909 875.705,930.592 881.83,906.692" style="fill:#f6b484;fill-rule:nonzero;"/>
        </g>
        <g>
            <path d="M924.96,976.925C901.235,983.417 867.602,991.8 840.485,974.242C848.568,970.425 852.26,975.742 839.46,968.584C868.227,954.942 896.185,989.075 924.96,976.925" style="fill:#f6b484;fill-rule:nonzero;"/>
        </g>
        <g>
            <path d="M838.67,913.877C833.12,924.744 821.27,965.869 794.52,968.477C797.637,963.469 800.312,962.06 792.528,966.46C793.753,939.169 833.42,938.56 838.67,913.877" style="fill:#f6b484;fill-rule:nonzero;"/>
        </g>
        <g>
            <path d="M877.67,997.21C858.028,995.802 818.278,1004.01 791.403,977.31C804.087,978.094 804.812,980.544 792.603,973.852C821.253,964.277 849.12,1002.12 877.67,997.21" style="fill:#f6b484;fill-rule:nonzero;"/>
        </g>
        <g>
            <path d="M733.35,917.345C715.5,932.179 675.908,953.454 650.133,941.812C658.192,936.104 662.342,937.412 648.958,938.095C672.425,909.529 705.8,938.695 733.35,917.345" style="fill:#f6b484;fill-rule:nonzero;"/>
        </g>
        <g>
            <path d="M744.05,977.252C756.125,981.794 756.1,984.469 745.383,973.535C775.183,967.885 804.083,1014.49 833.758,1015.04C803.8,1005.58 773.567,1013.44 744.05,977.252" style="fill:#f6b484;fill-rule:nonzero;"/>
        </g>
        <g>
            <path d="M606.31,916.435C613.918,911.669 617.193,916.919 605.185,910.219C634.752,892.802 663.502,922.127 692.968,910.677C673.985,918.185 633.235,932.96 606.31,916.435" style="fill:#f6b484;fill-rule:nonzero;"/>
        </g>
        <g>
            <path d="M606.16,926.445C605.035,935.312 611.243,935.945 599.952,928.079C596.568,961.887 635.677,975.095 637.702,1006.29C636.543,986.112 632.76,943.479 606.16,926.445" style="fill:#f6b484;fill-rule:nonzero;"/>
        </g>
        <g>
            <path d="M776.46,1017.84C754.835,1011.63 711.777,1002.98 694.502,967.62C705.277,974.387 706.06,977.929 697.068,965.12C729.118,963.537 746.085,1016.34 776.46,1017.84" style="fill:#f6b484;fill-rule:nonzero;"/>
        </g>
        <g>
            <path d="M720.37,1015.79C693.387,1002.53 655.82,983.71 643.678,950.685C655.003,955.319 656.845,959.51 647.478,949.477C682.145,954.127 687.762,1006.59 720.37,1015.79" style="fill:#f6b484;fill-rule:nonzero;"/>
        </g>
        <path d="M85.833,736.881L85.833,768.414L121.599,731.114C123.316,729.314 124.779,727.985 125.985,727.126C127.192,726.268 128.797,725.838 130.801,725.838C133.418,725.838 135.535,726.605 137.15,728.139C138.766,729.672 139.574,731.543 139.574,733.752C139.574,736.41 138.204,739.048 135.463,741.666L113.317,762.647L138.837,799.21C140.637,801.746 141.987,803.965 142.886,805.866C143.786,807.768 144.236,809.619 144.236,811.418C144.236,813.422 143.449,815.161 141.874,816.633C140.3,818.105 138.163,818.841 135.463,818.841C132.928,818.841 130.862,818.3 129.267,817.216C127.672,816.132 126.323,814.69 125.218,812.891C124.114,811.091 123.132,809.455 122.274,807.983L100.74,774.855L85.833,789.149L85.833,807.738C85.833,811.5 84.974,814.292 83.256,816.112C81.539,817.931 79.33,818.841 76.631,818.841C75.077,818.841 73.584,818.432 72.152,817.615C70.721,816.797 69.617,815.692 68.84,814.302C68.267,813.157 67.919,811.827 67.797,810.314C67.674,808.801 67.613,806.613 67.613,803.75L67.613,736.881C67.613,733.2 68.42,730.439 70.036,728.599C71.651,726.758 73.85,725.838 76.631,725.838C79.371,725.838 81.59,726.748 83.287,728.568C84.984,730.388 85.833,733.159 85.833,736.881Z" style="fill:#da7817;fill-rule:nonzero;"/>
        <path d="M184.971,778.843L178.591,778.843L178.591,807.738C178.591,811.541 177.752,814.343 176.076,816.142C174.399,817.942 172.211,818.841 169.511,818.841C166.608,818.841 164.358,817.901 162.763,816.019C161.168,814.138 160.371,811.377 160.371,807.738L160.371,738.537C160.371,734.611 161.25,731.768 163.009,730.01C164.767,728.251 167.61,727.372 171.536,727.372L201.167,727.372C205.257,727.372 208.754,727.546 211.657,727.893C214.561,728.241 217.179,728.946 219.51,730.01C222.332,731.196 224.827,732.893 226.994,735.102C229.162,737.31 230.808,739.877 231.933,742.801C233.058,745.725 233.62,748.823 233.62,752.095C233.62,758.802 231.728,764.16 227.945,768.168C224.162,772.176 218.426,775.019 210.737,776.695C213.968,778.413 217.056,780.949 220.001,784.303C222.945,787.656 225.573,791.225 227.884,795.008C230.195,798.791 231.994,802.206 233.283,805.253C234.571,808.3 235.215,810.396 235.215,811.541C235.215,812.727 234.837,813.903 234.08,815.069C233.323,816.234 232.291,817.154 230.982,817.829C229.673,818.504 228.16,818.841 226.442,818.841C224.397,818.841 222.68,818.361 221.289,817.4C219.898,816.439 218.702,815.222 217.7,813.75C216.698,812.277 215.338,810.11 213.621,807.247L206.32,795.1C203.703,790.642 201.361,787.247 199.296,784.916C197.23,782.585 195.134,780.99 193.008,780.131C190.881,779.272 188.202,778.843 184.971,778.843ZM195.4,741.052L178.591,741.052L178.591,765.776L194.909,765.776C199.286,765.776 202.966,765.397 205.952,764.641C208.938,763.884 211.218,762.596 212.792,760.776C214.367,758.956 215.154,756.451 215.154,753.261C215.154,750.766 214.52,748.568 213.252,746.666C211.985,744.764 210.226,743.343 207.977,742.402C205.85,741.502 201.658,741.052 195.4,741.052Z" style="fill:#da7817;fill-rule:nonzero;"/>
        <path d="M310.121,741.42L269.079,741.42L269.079,763.506L306.869,763.506C309.65,763.506 311.726,764.129 313.096,765.377C314.466,766.624 315.151,768.27 315.151,770.315C315.151,772.36 314.476,774.027 313.127,775.315C311.777,776.603 309.691,777.248 306.869,777.248L269.079,777.248L269.079,802.83L311.532,802.83C314.395,802.83 316.552,803.494 318.004,804.823C319.456,806.153 320.182,807.922 320.182,810.13C320.182,812.257 319.456,813.985 318.004,815.314C316.552,816.643 314.395,817.308 311.532,817.308L262.024,817.308C258.057,817.308 255.204,816.428 253.466,814.67C251.728,812.911 250.859,810.069 250.859,806.142L250.859,738.537C250.859,735.92 251.247,733.783 252.024,732.126C252.801,730.47 254.018,729.263 255.674,728.507C257.331,727.75 259.447,727.372 262.024,727.372L310.121,727.372C313.025,727.372 315.182,728.016 316.593,729.304C318.004,730.593 318.709,732.28 318.709,734.365C318.709,736.492 318.004,738.2 316.593,739.488C315.182,740.776 313.025,741.42 310.121,741.42Z" style="fill:#da7817;fill-rule:nonzero;"/>
        <path d="M392.204,807.124L387.91,795.836L351.346,795.836L347.052,807.369C345.375,811.868 343.944,814.905 342.758,816.48C341.572,818.054 339.629,818.841 336.93,818.841C334.639,818.841 332.615,818.003 330.856,816.326C329.098,814.649 328.218,812.748 328.218,810.621C328.218,809.394 328.423,808.126 328.832,806.817C329.241,805.509 329.916,803.689 330.856,801.357L353.862,742.954C354.516,741.277 355.303,739.263 356.224,736.911C357.144,734.56 358.125,732.607 359.168,731.053C360.211,729.499 361.581,728.241 363.279,727.28C364.976,726.319 367.072,725.838 369.567,725.838C372.103,725.838 374.219,726.319 375.916,727.28C377.614,728.241 378.984,729.478 380.027,730.991C381.07,732.505 381.949,734.13 382.665,735.868C383.38,737.607 384.29,739.928 385.395,742.831L408.891,800.867C410.731,805.284 411.651,808.494 411.651,810.498C411.651,812.584 410.782,814.496 409.044,816.234C407.306,817.972 405.21,818.841 402.756,818.841C401.325,818.841 400.098,818.586 399.075,818.075C398.053,817.563 397.194,816.868 396.499,815.989C395.803,815.109 395.057,813.76 394.259,811.94C393.462,810.12 392.777,808.515 392.204,807.124ZM356.132,782.155L383.002,782.155L369.444,745.04L356.132,782.155Z" style="fill:#da7817;fill-rule:nonzero;"/>
        <path d="M472.386,742.402L452.509,742.402L452.509,807.738C452.509,811.5 451.671,814.292 449.994,816.112C448.317,817.931 446.149,818.841 443.491,818.841C440.792,818.841 438.593,817.921 436.896,816.081C435.199,814.24 434.35,811.459 434.35,807.738L434.35,742.402L414.473,742.402C411.365,742.402 409.054,741.717 407.541,740.347C406.028,738.977 405.271,737.167 405.271,734.918C405.271,732.586 406.059,730.746 407.633,729.396C409.208,728.047 411.488,727.372 414.473,727.372L472.386,727.372C475.535,727.372 477.876,728.067 479.41,729.458C480.944,730.848 481.711,732.668 481.711,734.918C481.711,737.167 480.934,738.977 479.379,740.347C477.825,741.717 475.494,742.402 472.386,742.402Z" style="fill:#da7817;fill-rule:nonzero;"/>
        <path d="M493.244,807.738L493.244,736.881C493.244,733.2 494.083,730.439 495.759,728.599C497.436,726.758 499.604,725.838 502.262,725.838C505.002,725.838 507.221,726.748 508.918,728.568C510.616,730.388 511.464,733.159 511.464,736.881L511.464,807.738C511.464,811.459 510.616,814.24 508.918,816.081C507.221,817.921 505.002,818.841 502.262,818.841C499.645,818.841 497.487,817.911 495.79,816.05C494.093,814.189 493.244,811.418 493.244,807.738Z" style="fill:#da7817;fill-rule:nonzero;"/>
        <path d="M545.144,737.801L565.512,798.106L585.941,737.372C587.004,734.181 587.802,731.963 588.333,730.715C588.865,729.468 589.744,728.343 590.971,727.341C592.198,726.339 593.875,725.838 596.002,725.838C597.556,725.838 598.998,726.227 600.327,727.004C601.656,727.781 602.699,728.813 603.456,730.102C604.212,731.39 604.59,732.689 604.59,733.997C604.59,734.897 604.468,735.868 604.222,736.911C603.977,737.954 603.67,738.977 603.302,739.979C602.934,740.981 602.566,742.014 602.198,743.077L580.419,801.848C579.642,804.098 578.865,806.234 578.088,808.259C577.311,810.283 576.411,812.063 575.389,813.596C574.366,815.13 573.007,816.388 571.309,817.369C569.612,818.351 567.536,818.841 565.082,818.841C562.629,818.841 560.553,818.361 558.856,817.4C557.158,816.439 555.788,815.171 554.745,813.596C553.702,812.022 552.792,810.232 552.015,808.228C551.238,806.224 550.461,804.098 549.684,801.848L528.274,743.568C527.906,742.504 527.527,741.461 527.139,740.439C526.75,739.416 526.423,738.312 526.157,737.126C525.891,735.94 525.758,734.938 525.758,734.12C525.758,732.034 526.597,730.132 528.274,728.415C529.951,726.697 532.057,725.838 534.593,725.838C537.701,725.838 539.899,726.789 541.187,728.691C542.476,730.593 543.795,733.629 545.144,737.801Z" style="fill:#da7817;fill-rule:nonzero;"/>
        <path d="M672.87,815.822L645.386,815.822C641.419,815.822 638.587,814.933 636.889,813.154C635.192,811.375 634.343,808.542 634.343,804.657L634.343,737.052C634.343,733.085 635.212,730.232 636.951,728.494C638.689,726.755 641.501,725.886 645.386,725.886L674.526,725.886C678.821,725.886 682.542,726.152 685.692,726.684C688.841,727.216 691.663,728.238 694.158,729.751C696.284,731.019 698.166,732.624 699.802,734.567C701.437,736.51 702.685,738.657 703.544,741.009C704.403,743.36 704.832,745.845 704.832,748.462C704.832,757.46 700.333,764.045 691.336,768.216C703.155,771.979 709.065,779.3 709.065,790.179C709.065,795.209 707.777,799.739 705.2,803.767C702.624,807.796 699.147,810.771 694.771,812.694C692.031,813.839 688.882,814.647 685.323,815.117C681.765,815.587 677.614,815.822 672.87,815.822ZM671.52,775.885L652.564,775.885L652.564,802.142L672.134,802.142C684.444,802.142 690.599,797.704 690.599,788.829C690.599,784.29 689.004,780.997 685.814,778.952C682.624,776.907 677.859,775.885 671.52,775.885ZM652.564,739.567L652.564,762.818L669.25,762.818C673.79,762.818 677.297,762.388 679.771,761.529C682.246,760.671 684.137,759.035 685.446,756.622C686.469,754.904 686.98,752.982 686.98,750.855C686.98,746.315 685.364,743.299 682.133,741.806C678.902,740.313 673.974,739.567 667.349,739.567L652.564,739.567Z" style="fill:#fff;fill-rule:nonzero;stroke:#444;stroke-width:27.67px;"/>
        <path d="M725.568,806.252L725.568,735.395C725.568,731.714 726.406,728.954 728.083,727.113C729.76,725.273 731.927,724.353 734.586,724.353C737.326,724.353 739.545,725.263 741.242,727.083C742.939,728.903 743.788,731.674 743.788,735.395L743.788,806.252C743.788,809.974 742.939,812.755 741.242,814.595C739.545,816.436 737.326,817.356 734.586,817.356C731.968,817.356 729.811,816.426 728.114,814.565C726.416,812.704 725.568,809.933 725.568,806.252Z" style="fill:#fff;fill-rule:nonzero;stroke:#444;stroke-width:27.67px;"/>
        <path d="M823.417,739.935L782.376,739.935L782.376,762.02L820.166,762.02C822.947,762.02 825.023,762.644 826.393,763.891C827.763,765.139 828.448,766.785 828.448,768.83C828.448,770.875 827.773,772.541 826.424,773.83C825.074,775.118 822.988,775.762 820.166,775.762L782.376,775.762L782.376,801.344L824.828,801.344C827.691,801.344 829.849,802.009 831.301,803.338C832.753,804.667 833.479,806.436 833.479,808.645C833.479,810.771 832.753,812.499 831.301,813.829C829.849,815.158 827.691,815.822 824.828,815.822L775.321,815.822C771.354,815.822 768.501,814.943 766.763,813.184C765.025,811.426 764.155,808.583 764.155,804.657L764.155,737.052C764.155,734.434 764.544,732.297 765.321,730.641C766.098,728.984 767.315,727.778 768.971,727.021C770.628,726.265 772.744,725.886 775.321,725.886L823.417,725.886C826.321,725.886 828.479,726.531 829.89,727.819C831.301,729.107 832.006,730.794 832.006,732.88C832.006,735.007 831.301,736.714 829.89,738.003C828.479,739.291 826.321,739.935 823.417,739.935Z" style="fill:#fff;fill-rule:nonzero;stroke:#444;stroke-width:27.67px;"/>
        <path d="M872.434,777.357L866.054,777.357L866.054,806.252C866.054,810.056 865.216,812.857 863.539,814.657C861.862,816.456 859.674,817.356 856.975,817.356C854.071,817.356 851.822,816.415 850.227,814.534C848.631,812.653 847.834,809.892 847.834,806.252L847.834,737.052C847.834,733.125 848.713,730.283 850.472,728.524C852.231,726.766 855.073,725.886 858.999,725.886L888.63,725.886C892.72,725.886 896.217,726.06 899.121,726.408C902.025,726.755 904.642,727.461 906.973,728.524C909.795,729.71 912.29,731.408 914.458,733.616C916.625,735.825 918.272,738.391 919.396,741.315C920.521,744.24 921.083,747.338 921.083,750.61C921.083,757.317 919.192,762.675 915.409,766.683C911.626,770.691 905.889,773.533 898.201,775.21C901.432,776.928 904.519,779.464 907.464,782.817C910.409,786.171 913.037,789.739 915.347,793.522C917.658,797.306 919.458,800.721 920.746,803.767C922.034,806.814 922.678,808.91 922.678,810.056C922.678,811.242 922.3,812.418 921.543,813.583C920.787,814.749 919.754,815.669 918.445,816.344C917.137,817.019 915.623,817.356 913.906,817.356C911.861,817.356 910.143,816.875 908.752,815.914C907.362,814.953 906.166,813.737 905.164,812.264C904.162,810.792 902.802,808.624 901.084,805.761L893.783,793.614C891.166,789.156 888.825,785.762 886.759,783.431C884.694,781.099 882.598,779.504 880.471,778.646C878.344,777.787 875.665,777.357 872.434,777.357ZM882.864,739.567L866.054,739.567L866.054,764.29L882.373,764.29C886.749,764.29 890.43,763.912 893.415,763.155C896.401,762.399 898.681,761.11 900.256,759.29C901.83,757.47 902.618,754.965 902.618,751.775C902.618,749.28 901.984,747.082 900.716,745.18C899.448,743.279 897.689,741.857 895.44,740.917C893.313,740.017 889.121,739.567 882.864,739.567Z" style="fill:#fff;fill-rule:nonzero;stroke:#444;stroke-width:27.67px;"/>
        <path d="M672.417,814.839L644.933,814.839C640.966,814.839 638.134,813.949 636.437,812.17C634.739,810.391 633.891,807.559 633.891,803.673L633.891,736.068C633.891,732.101 634.76,729.248 636.498,727.51C638.236,725.772 641.048,724.903 644.933,724.903L674.074,724.903C678.368,724.903 682.09,725.169 685.239,725.7C688.388,726.232 691.21,727.254 693.705,728.768C695.832,730.036 697.713,731.641 699.349,733.584C700.985,735.526 702.232,737.673 703.091,740.025C703.95,742.377 704.379,744.861 704.379,747.479C704.379,756.477 699.881,763.061 690.883,767.233C702.703,770.995 708.612,778.316 708.612,789.195C708.612,794.226 707.324,798.755 704.748,802.784C702.171,806.812 698.695,809.788 694.318,811.71C691.578,812.855 688.429,813.663 684.871,814.133C681.313,814.604 677.161,814.839 672.417,814.839ZM671.068,774.901L652.111,774.901L652.111,801.158L671.681,801.158C683.992,801.158 690.147,796.721 690.147,787.846C690.147,783.306 688.552,780.014 685.362,777.969C682.172,775.924 677.407,774.901 671.068,774.901ZM652.111,738.583L652.111,761.834L668.798,761.834C673.337,761.834 676.844,761.405 679.319,760.546C681.793,759.687 683.685,758.051 684.994,755.638C686.016,753.92 686.527,751.998 686.527,749.871C686.527,745.332 684.912,742.315 681.681,740.823C678.45,739.33 673.521,738.583 666.896,738.583L652.111,738.583Z" style="fill:#fff;fill-rule:nonzero;"/>
        <path d="M725.115,805.269L725.115,734.412C725.115,730.731 725.953,727.97 727.63,726.13C729.307,724.289 731.475,723.369 734.133,723.369C736.873,723.369 739.092,724.279 740.789,726.099C742.487,727.919 743.335,730.69 743.335,734.412L743.335,805.269C743.335,808.99 742.487,811.771 740.789,813.612C739.092,815.452 736.873,816.372 734.133,816.372C731.516,816.372 729.358,815.442 727.661,813.581C725.964,811.72 725.115,808.949 725.115,805.269Z" style="fill:#fff;fill-rule:nonzero;"/>
        <path d="M822.965,738.951L781.923,738.951L781.923,761.037L819.713,761.037C822.495,761.037 824.57,761.66 825.94,762.908C827.31,764.155 827.995,765.801 827.995,767.846C827.995,769.891 827.321,771.558 825.971,772.846C824.621,774.134 822.535,774.779 819.713,774.779L781.923,774.779L781.923,800.361L824.376,800.361C827.239,800.361 829.396,801.025 830.848,802.354C832.3,803.684 833.026,805.453 833.026,807.661C833.026,809.788 832.3,811.516 830.848,812.845C829.396,814.174 827.239,814.839 824.376,814.839L774.868,814.839C770.901,814.839 768.048,813.959 766.31,812.201C764.572,810.442 763.703,807.6 763.703,803.673L763.703,736.068C763.703,733.451 764.091,731.314 764.868,729.657C765.646,728.001 766.862,726.794 768.519,726.038C770.175,725.281 772.292,724.903 774.868,724.903L822.965,724.903C825.869,724.903 828.026,725.547 829.437,726.835C830.848,728.124 831.554,729.811 831.554,731.896C831.554,734.023 830.848,735.731 829.437,737.019C828.026,738.307 825.869,738.951 822.965,738.951Z" style="fill:#fff;fill-rule:nonzero;"/>
        <path d="M871.982,776.374L865.602,776.374L865.602,805.269C865.602,809.072 864.763,811.874 863.086,813.673C861.41,815.473 859.221,816.372 856.522,816.372C853.618,816.372 851.369,815.432 849.774,813.55C848.179,811.669 847.381,808.908 847.381,805.269L847.381,736.068C847.381,732.142 848.261,729.299 850.019,727.541C851.778,725.782 854.62,724.903 858.547,724.903L888.178,724.903C892.268,724.903 895.764,725.077 898.668,725.424C901.572,725.772 904.189,726.477 906.521,727.541C909.343,728.727 911.837,730.424 914.005,732.633C916.173,734.841 917.819,737.408 918.944,740.332C920.068,743.256 920.631,746.354 920.631,749.626C920.631,756.333 918.739,761.691 914.956,765.699C911.173,769.707 905.437,772.55 897.748,774.226C900.979,775.944 904.067,778.48 907.011,781.834C909.956,785.187 912.584,788.756 914.895,792.539C917.205,796.322 919.005,799.737 920.293,802.784C921.582,805.831 922.226,807.927 922.226,809.072C922.226,810.258 921.847,811.434 921.091,812.6C920.334,813.765 919.301,814.685 917.993,815.36C916.684,816.035 915.171,816.372 913.453,816.372C911.408,816.372 909.69,815.892 908.3,814.931C906.909,813.97 905.713,812.753 904.711,811.281C903.709,809.808 902.349,807.641 900.631,804.778L893.331,792.631C890.713,788.173 888.372,784.778 886.307,782.447C884.241,780.116 882.145,778.521 880.018,777.662C877.892,776.803 875.213,776.374 871.982,776.374ZM882.411,738.583L865.602,738.583L865.602,763.307L881.92,763.307C886.296,763.307 889.977,762.928 892.963,762.172C895.948,761.415 898.228,760.127 899.803,758.307C901.378,756.487 902.165,753.982 902.165,750.792C902.165,748.297 901.531,746.098 900.263,744.197C898.995,742.295 897.237,740.874 894.987,739.933C892.861,739.033 888.668,738.583 882.411,738.583Z" style="fill:#fff;fill-rule:nonzero;"/>
        <path d="M963.869,817.841C961.334,817.841 959.146,817.024 957.305,815.388C955.465,813.752 954.545,811.461 954.545,808.517C954.545,806.022 955.424,803.875 957.182,802.075C958.941,800.276 961.109,799.376 963.685,799.376C966.262,799.376 968.46,800.265 970.28,802.044C972.1,803.823 973.01,805.981 973.01,808.517C973.01,811.42 972.1,813.701 970.28,815.357C968.46,817.013 966.323,817.841 963.869,817.841Z" style="fill:#da7817;fill-rule:nonzero;"/>
        <path d="M1037.98,808.271L1037.98,806.615C1035.73,809.191 1033.51,811.287 1031.32,812.903C1029.13,814.518 1026.76,815.745 1024.2,816.584C1021.65,817.422 1018.86,817.841 1015.83,817.841C1011.82,817.841 1008.11,816.993 1004.7,815.296C1001.28,813.598 998.326,811.175 995.832,808.026C993.337,804.877 991.445,801.175 990.157,796.922C988.869,792.668 988.224,788.067 988.224,783.119C988.224,772.649 990.781,764.489 995.893,758.641C1001,752.792 1007.73,749.868 1016.08,749.868C1020.9,749.868 1024.97,750.696 1028.29,752.353C1031.6,754.009 1034.83,756.555 1037.98,759.99L1037.98,735.267C1037.98,731.832 1038.66,729.235 1040.03,727.476C1041.4,725.717 1043.36,724.838 1045.89,724.838C1048.43,724.838 1050.38,725.646 1051.75,727.261C1053.12,728.877 1053.81,731.259 1053.81,734.408L1053.81,808.271C1053.81,811.461 1053.07,813.854 1051.6,815.449C1050.12,817.044 1048.22,817.841 1045.89,817.841C1043.6,817.841 1041.71,817.013 1040.22,815.357C1038.72,813.701 1037.98,811.339 1037.98,808.271ZM1005.03,783.671C1005.03,788.21 1005.74,792.075 1007.15,795.265C1008.56,798.456 1010.49,800.858 1012.95,802.474C1015.4,804.089 1018.08,804.897 1020.98,804.897C1023.93,804.897 1026.62,804.13 1029.05,802.597C1031.49,801.063 1033.43,798.711 1034.88,795.542C1036.33,792.372 1037.06,788.415 1037.06,783.671C1037.06,779.213 1036.33,775.379 1034.88,772.168C1033.43,768.957 1031.46,766.504 1028.99,764.806C1026.52,763.109 1023.81,762.26 1020.86,762.26C1017.79,762.26 1015.05,763.129 1012.64,764.868C1010.23,766.606 1008.36,769.101 1007.03,772.352C1005.7,775.603 1005.03,779.376 1005.03,783.671Z" style="fill:#da7817;fill-rule:nonzero;"/>
        <path d="M1117.36,787.904L1084.6,787.904C1084.64,791.707 1085.41,795.061 1086.9,797.965C1088.39,800.869 1090.38,803.057 1092.85,804.529C1095.33,806.001 1098.06,806.738 1101.04,806.738C1103.05,806.738 1104.88,806.502 1106.53,806.032C1108.19,805.562 1109.8,804.826 1111.35,803.823C1112.9,802.821 1114.34,801.748 1115.64,800.603C1116.95,799.458 1118.65,797.903 1120.74,795.94C1121.6,795.204 1122.82,794.836 1124.42,794.836C1126.13,794.836 1127.53,795.306 1128.59,796.247C1129.65,797.188 1130.18,798.517 1130.18,800.235C1130.18,801.748 1129.59,803.517 1128.4,805.541C1127.22,807.566 1125.43,809.508 1123.04,811.369C1120.64,813.23 1117.64,814.774 1114.02,816.001C1110.4,817.228 1106.24,817.841 1101.53,817.841C1090.78,817.841 1082.41,814.774 1076.44,808.639C1070.47,802.505 1067.49,794.182 1067.49,783.671C1067.49,778.722 1068.22,774.131 1069.69,769.898C1071.17,765.665 1073.31,762.035 1076.14,759.009C1078.96,755.982 1082.43,753.661 1086.57,752.046C1090.7,750.43 1095.28,749.623 1100.31,749.623C1106.85,749.623 1112.46,751.003 1117.15,753.764C1121.83,756.524 1125.34,760.093 1127.67,764.469C1130,768.845 1131.16,773.303 1131.16,777.843C1131.16,782.055 1129.96,784.785 1127.55,786.033C1125.13,787.28 1121.74,787.904 1117.36,787.904ZM1084.6,778.395L1114.97,778.395C1114.56,772.669 1113.02,768.385 1110.34,765.542C1107.66,762.7 1104.13,761.279 1099.76,761.279C1095.58,761.279 1092.16,762.72 1089.48,765.604C1086.8,768.487 1085.17,772.751 1084.6,778.395Z" style="fill:#da7817;fill-rule:nonzero;"/>
    </g>
</svg>
