<?xml version="1.0" encoding="UTF-8" standalone="no"?>
<!DOCTYPE svg PUBLIC "-//W3C//DTD SVG 1.1//EN" "http://www.w3.org/Graphics/SVG/1.1/DTD/svg11.dtd">
<svg width="100%" height="100%" viewBox="0 0 1063 958" version="1.1" xmlns="http://www.w3.org/2000/svg" xmlns:xlink="http://www.w3.org/1999/xlink" xml:space="preserve" xmlns:serif="http://www.serif.com/" style="fill-rule:evenodd;clip-rule:evenodd;stroke-linejoin:round;stroke-miterlimit:2;">
    <g transform="matrix(1,0,0,1,-68.6126,-64.0004)">
        <g transform="matrix(1,0,0,1,-1260.17,-179.953)">
            <g transform="matrix(8.33333,0,0,8.33333,2147.53,446.118)">
                <path d="M0,70.81L0,30.691C0,28.961 -0.419,27.255 -1.222,25.722L-5.197,18.125C-5.687,17.188 -6.011,16.175 -6.156,15.128L-9.791,-11.136L-17.536,-11.136L-21.171,15.128C-21.316,16.175 -21.64,17.188 -22.13,18.125L-26.105,25.722C-26.908,27.255 -27.327,28.961 -27.327,30.691L-27.327,70.81C-29.03,74.814 -28.7,78.165 -28.145,80.236C-27.875,81.245 -26.963,81.946 -25.918,81.946L-1.409,81.946C-0.364,81.946 0.548,81.245 0.818,80.236C1.373,78.165 1.703,74.814 0,70.81" style="fill:rgb(68,68,68);fill-rule:nonzero;"/>
            </g>
        </g>
        <g transform="matrix(1,0,0,1,-1260.17,-179.953)">
            <g transform="matrix(8.33333,0,0,8.33333,1951.97,367.577)">
                <path d="M0,86.987C-0.555,84.916 -0.885,81.565 0.818,77.561L0.818,40.116C0.818,38.385 1.238,36.68 2.04,35.147L6.015,27.549C6.505,26.613 6.83,25.6 6.974,24.553L9.273,-1.711L8.27,-1.711L4.635,24.553C4.49,25.6 4.166,26.613 3.676,27.549L-0.299,35.147C-1.102,36.68 -1.521,38.385 -1.521,40.116L-1.521,77.561C-3.224,81.565 -2.894,84.916 -2.339,86.987C-2.069,87.996 -1.157,88.698 -0.112,88.698L2.227,88.698C1.183,88.698 0.27,87.996 0,86.987" style="fill:white;fill-rule:nonzero;"/>
            </g>
        </g>
        <g transform="matrix(1,0,0,1,-1260.17,-179.953)">
            <g transform="matrix(8.33333,0,0,8.33333,2070.76,357.685)">
                <path d="M0,2.319L-8.903,2.319C-9.544,2.319 -10.063,1.8 -10.063,1.159C-10.063,0.519 -9.544,0 -8.903,0L0,0C0.64,0 1.16,0.519 1.16,1.159C1.16,1.8 0.64,2.319 0,2.319" style="fill:rgb(218,120,23);fill-rule:nonzero;"/>
            </g>
        </g>
        <g transform="matrix(1,0,0,1,-1260.17,-179.953)">
            <g transform="matrix(8.33333,0,0,8.33333,2074.67,329.792)">
                <path d="M0,3.445L-9.663,3.445L-9.663,2.803C-9.663,1.255 -8.407,0 -6.859,0L-2.803,0C-1.255,0 0,1.255 0,2.803L0,3.445Z" style="fill:rgb(246,180,132);fill-rule:nonzero;"/>
            </g>
        </g>
        <g transform="matrix(1,0,0,1,-1260.17,-179.953)">
            <g transform="matrix(8.33333,0,0,8.33333,2187,360.032)">
                <path d="M0,-12.595L-9.516,-2.525L-5.772,0L0,-12.595Z" style="fill:rgb(246,180,132);fill-rule:nonzero;"/>
            </g>
        </g>
        <g transform="matrix(1,0,0,1,-1260.17,-179.953)">
            <g transform="matrix(8.33333,0,0,8.33333,1862.77,376.207)">
                <path d="M0,-11.12L8.264,0L11.402,-3.249L0,-11.12Z" style="fill:rgb(246,180,132);fill-rule:nonzero;"/>
            </g>
        </g>
        <g transform="matrix(1,0,0,1,-1260.17,-179.953)">
            <g transform="matrix(8.33333,0,0,8.33333,1932.05,301.67)">
                <path d="M0,-6.926L3.288,0L5.571,-1.659L0,-6.926Z" style="fill:rgb(246,180,132);fill-rule:nonzero;"/>
            </g>
        </g>
        <g transform="matrix(1,0,0,1,-1260.17,-179.953)">
            <g transform="matrix(8.33333,0,0,8.33333,2269.9,1094.97)">
                <path d="M0,-6.029C-1.418,-3.6 -3.822,0 -6.649,-0.095C-6.143,-0.892 -5.79,-0.881 -6.914,-0.36C-6.062,-4.114 -1.709,-2.912 0,-6.029" style="fill:rgb(246,180,132);fill-rule:nonzero;"/>
            </g>
        </g>
        <g transform="matrix(1,0,0,1,-1260.17,-179.953)">
            <g transform="matrix(8.33333,0,0,8.33333,2071.03,1151.16)">
                <path d="M0,-6.576C-1.995,-3.375 -5.02,0 -8.243,-0.045C-7.568,-1.172 -7.173,-0.853 -8.531,-0.643C-6.771,-4.805 -2.739,-2.667 0,-6.576" style="fill:rgb(246,180,132);fill-rule:nonzero;"/>
            </g>
        </g>
        <g transform="matrix(1,0,0,1,-1260.17,-179.953)">
            <g transform="matrix(8.33333,0,0,8.33333,2029.1,1154.23)">
                <path d="M0,-6.408C-1.853,-4.059 -6.329,0 -9.119,-1.376C-7.707,-1.894 -7.804,-2.088 -9.269,-1.527C-7.287,-5.754 -2.96,-2.682 0,-6.408" style="fill:rgb(246,180,132);fill-rule:nonzero;"/>
            </g>
        </g>
        <g transform="matrix(1,0,0,1,-1260.17,-179.953)">
            <g transform="matrix(8.33333,0,0,8.33333,2210.47,1110.93)">
                <path d="M0,-7.352C-0.501,-5.875 -0.031,-1.849 -3.375,0C-2.94,-1.03 -2.88,-1.031 -3.721,-0.117C-4.579,-2.792 0.143,-4.764 0,-7.352" style="fill:rgb(246,180,132);fill-rule:nonzero;"/>
            </g>
        </g>
        <g transform="matrix(1,0,0,1,-1260.17,-179.953)">
            <g transform="matrix(8.33333,0,0,8.33333,2184.2,1105.51)">
                <path d="M0,1.774C2.051,-1.086 5.036,1.363 7.474,-0.876C5.471,1.19 2.458,2.86 0.112,2.128C0.832,1.53 1.222,1.595 0,1.774" style="fill:rgb(246,180,132);fill-rule:nonzero;"/>
            </g>
        </g>
        <g transform="matrix(1,0,0,1,-1260.17,-179.953)">
            <g transform="matrix(8.33333,0,0,8.33333,2137.39,1069.54)">
                <path d="M0,7.738C0.578,6.737 0.892,6.656 -0.246,7.487C-0.685,4.437 4.696,2.853 4.678,0C3.732,2.771 3.544,6.372 0,7.738" style="fill:rgb(246,180,132);fill-rule:nonzero;"/>
            </g>
        </g>
        <g transform="matrix(1,0,0,1,-1260.17,-179.953)">
            <g transform="matrix(-1.4335,-8.20911,-8.20911,1.4335,2173.01,1103.91)">
                <path d="M-3.969,-4.356C-4.243,-4.95 -4.273,-2.462 -4.393,-1.895C-4.843,0.184 -5.306,2.305 -3.969,3.916C-3.707,3.149 -3.823,2.838 -3.589,3.965C-1.521,1.271 -4.938,-1.456 -3.969,-4.356" style="fill:rgb(246,180,132);fill-rule:nonzero;"/>
            </g>
        </g>
        <g transform="matrix(1,0,0,1,-1260.17,-179.953)">
            <g transform="matrix(8.33333,0,0,8.33333,2138,1145.92)">
                <path d="M0,-6.633C-0.736,-5.226 -2.12,-0.472 -5.364,0C-5.004,-0.819 -4.532,-1.179 -5.604,-0.242C-5.606,-3.367 -0.735,-3.765 0,-6.633" style="fill:rgb(246,180,132);fill-rule:nonzero;"/>
            </g>
        </g>
        <g transform="matrix(1,0,0,1,-1260.17,-179.953)">
            <g transform="matrix(8.33333,0,0,8.33333,2181.13,1153.77)">
                <path d="M0,0.853C-2.847,1.632 -6.883,2.638 -10.137,0.531C-9.167,0.073 -8.724,0.711 -10.26,-0.148C-6.808,-1.785 -3.453,2.311 0,0.853" style="fill:rgb(246,180,132);fill-rule:nonzero;"/>
            </g>
        </g>
        <g transform="matrix(1,0,0,1,-1260.17,-179.953)">
            <g transform="matrix(8.33333,0,0,8.33333,2094.84,1152.43)">
                <path d="M0,-6.552C-0.666,-5.248 -2.088,-0.313 -5.298,0C-4.924,-0.601 -4.603,-0.77 -5.537,-0.242C-5.39,-3.517 -0.63,-3.59 0,-6.552" style="fill:rgb(246,180,132);fill-rule:nonzero;"/>
            </g>
        </g>
        <g transform="matrix(1,0,0,1,-1260.17,-179.953)">
            <g transform="matrix(8.33333,0,0,8.33333,2133.84,1155.03)">
                <path d="M0,3.136C-2.357,2.967 -7.127,3.952 -10.352,0.748C-8.83,0.842 -8.743,1.136 -10.208,0.333C-6.77,-0.816 -3.426,3.725 0,3.136" style="fill:rgb(246,180,132);fill-rule:nonzero;"/>
            </g>
        </g>
        <g transform="matrix(1,0,0,1,-1260.17,-179.953)">
            <g transform="matrix(8.33333,0,0,8.33333,1989.52,1129.59)">
                <path d="M0,-3.395C-2.142,-1.615 -6.893,0.938 -9.986,-0.459C-9.019,-1.144 -8.521,-0.987 -10.127,-0.905C-7.311,-4.333 -3.306,-0.833 0,-3.395" style="fill:rgb(246,180,132);fill-rule:nonzero;"/>
            </g>
        </g>
        <g transform="matrix(1,0,0,1,-1260.17,-179.953)">
            <g transform="matrix(8.33333,0,0,8.33333,2000.22,1189.63)">
                <path d="M0,-3.411C1.449,-2.866 1.446,-2.545 0.16,-3.857C3.736,-4.535 7.204,1.058 10.765,1.124C7.17,-0.012 3.542,0.932 0,-3.411" style="fill:rgb(246,180,132);fill-rule:nonzero;"/>
            </g>
        </g>
        <g transform="matrix(1,0,0,1,-1260.17,-179.953)">
            <g transform="matrix(8.33333,0,0,8.33333,1862.48,1093.28)">
                <path d="M0,0.853C0.913,0.281 1.306,0.911 -0.135,0.107C3.413,-1.983 6.863,1.536 10.399,0.162C8.121,1.063 3.231,2.836 0,0.853" style="fill:rgb(246,180,132);fill-rule:nonzero;"/>
            </g>
        </g>
        <g transform="matrix(1,0,0,1,-1260.17,-179.953)">
            <g transform="matrix(8.33333,0,0,8.33333,1862.33,1190.24)">
                <path d="M0,-9.581C-0.135,-8.517 0.61,-8.441 -0.745,-9.385C-1.151,-5.328 3.542,-3.743 3.785,0C3.646,-2.421 3.192,-7.537 0,-9.581" style="fill:rgb(246,180,132);fill-rule:nonzero;"/>
            </g>
        </g>
        <g transform="matrix(1,0,0,1,-1260.17,-179.953)">
            <g transform="matrix(8.33333,0,0,8.33333,2032.63,1147.49)">
                <path d="M0,6.516C-2.595,5.771 -7.762,4.733 -9.835,0.49C-8.542,1.302 -8.448,1.727 -9.527,0.19C-5.681,0 -3.645,6.336 0,6.516" style="fill:rgb(246,180,132);fill-rule:nonzero;"/>
            </g>
        </g>
        <g transform="matrix(1,0,0,1,-1260.17,-179.953)">
            <g transform="matrix(8.33333,0,0,8.33333,1976.54,1133.43)">
                <path d="M0,7.958C-3.238,6.367 -7.746,4.108 -9.203,0.145C-7.844,0.701 -7.623,1.204 -8.747,0C-4.587,0.558 -3.913,6.853 0,7.958" style="fill:rgb(246,180,132);fill-rule:nonzero;"/>
            </g>
        </g>
        <g transform="matrix(1,0,0,1,-1260.17,-179.953)">
            <g transform="matrix(125.64,0,0,125.64,1318.84,997.261)">
                <path d="M0.224,-0.64L0.224,-0.389L0.509,-0.686C0.522,-0.7 0.534,-0.711 0.544,-0.718C0.553,-0.725 0.566,-0.728 0.582,-0.728C0.603,-0.728 0.62,-0.722 0.633,-0.71C0.645,-0.698 0.652,-0.683 0.652,-0.665C0.652,-0.644 0.641,-0.623 0.619,-0.602L0.443,-0.435L0.646,-0.144C0.66,-0.124 0.671,-0.106 0.678,-0.091C0.685,-0.076 0.689,-0.061 0.689,-0.047C0.689,-0.031 0.683,-0.017 0.67,-0.005C0.658,0.006 0.641,0.012 0.619,0.012C0.599,0.012 0.583,0.008 0.57,-0.001C0.557,-0.009 0.546,-0.021 0.538,-0.035C0.529,-0.049 0.521,-0.063 0.514,-0.074L0.343,-0.338L0.224,-0.224L0.224,-0.076C0.224,-0.046 0.217,-0.024 0.204,-0.01C0.19,0.005 0.172,0.012 0.151,0.012C0.139,0.012 0.127,0.009 0.115,0.002C0.104,-0.004 0.095,-0.013 0.089,-0.024C0.084,-0.033 0.082,-0.044 0.081,-0.056C0.08,-0.068 0.079,-0.085 0.079,-0.108L0.079,-0.64C0.079,-0.669 0.086,-0.691 0.098,-0.706C0.111,-0.721 0.129,-0.728 0.151,-0.728C0.173,-0.728 0.19,-0.721 0.204,-0.706C0.217,-0.692 0.224,-0.67 0.224,-0.64Z" style="fill:rgb(218,120,23);fill-rule:nonzero;"/>
            </g>
        </g>
        <g transform="matrix(1,0,0,1,-1260.17,-179.953)">
            <g transform="matrix(125.64,0,0,125.64,1411.85,997.261)">
                <path d="M0.273,-0.306L0.222,-0.306L0.222,-0.076C0.222,-0.046 0.215,-0.024 0.202,-0.009C0.189,0.005 0.171,0.012 0.15,0.012C0.127,0.012 0.109,0.005 0.096,-0.01C0.083,-0.025 0.077,-0.047 0.077,-0.076L0.077,-0.627C0.077,-0.658 0.084,-0.681 0.098,-0.695C0.112,-0.709 0.135,-0.716 0.166,-0.716L0.402,-0.716C0.434,-0.716 0.462,-0.714 0.485,-0.712C0.508,-0.709 0.529,-0.703 0.548,-0.695C0.57,-0.685 0.59,-0.672 0.607,-0.654C0.625,-0.637 0.638,-0.616 0.647,-0.593C0.656,-0.57 0.66,-0.545 0.66,-0.519C0.66,-0.466 0.645,-0.423 0.615,-0.391C0.585,-0.359 0.539,-0.337 0.478,-0.323C0.504,-0.31 0.528,-0.289 0.552,-0.263C0.575,-0.236 0.596,-0.208 0.615,-0.177C0.633,-0.147 0.647,-0.12 0.657,-0.096C0.668,-0.072 0.673,-0.055 0.673,-0.046C0.673,-0.036 0.67,-0.027 0.664,-0.018C0.658,-0.009 0.65,-0.001 0.639,0.004C0.629,0.01 0.617,0.012 0.603,0.012C0.587,0.012 0.573,0.008 0.562,0.001C0.551,-0.007 0.541,-0.017 0.533,-0.028C0.525,-0.04 0.515,-0.057 0.501,-0.08L0.443,-0.177C0.422,-0.212 0.403,-0.239 0.387,-0.258C0.371,-0.276 0.354,-0.289 0.337,-0.296C0.32,-0.303 0.299,-0.306 0.273,-0.306ZM0.356,-0.607L0.222,-0.607L0.222,-0.41L0.352,-0.41C0.387,-0.41 0.416,-0.413 0.44,-0.419C0.464,-0.425 0.482,-0.435 0.494,-0.45C0.507,-0.464 0.513,-0.484 0.513,-0.51C0.513,-0.53 0.508,-0.547 0.498,-0.562C0.488,-0.577 0.474,-0.589 0.456,-0.596C0.439,-0.603 0.406,-0.607 0.356,-0.607Z" style="fill:rgb(218,120,23);fill-rule:nonzero;"/>
            </g>
        </g>
        <g transform="matrix(1,0,0,1,-1260.17,-179.953)">
            <g transform="matrix(125.64,0,0,125.64,1502.21,997.261)">
                <path d="M0.55,-0.604L0.223,-0.604L0.223,-0.428L0.524,-0.428C0.546,-0.428 0.563,-0.423 0.573,-0.413C0.584,-0.403 0.59,-0.39 0.59,-0.374C0.59,-0.358 0.584,-0.344 0.574,-0.334C0.563,-0.324 0.546,-0.319 0.524,-0.319L0.223,-0.319L0.223,-0.115L0.561,-0.115C0.584,-0.115 0.601,-0.11 0.613,-0.099C0.624,-0.089 0.63,-0.075 0.63,-0.057C0.63,-0.04 0.624,-0.026 0.613,-0.016C0.601,-0.005 0.584,-0 0.561,-0L0.167,-0C0.135,-0 0.113,-0.007 0.099,-0.021C0.085,-0.035 0.078,-0.058 0.078,-0.089L0.078,-0.627C0.078,-0.648 0.081,-0.665 0.087,-0.678C0.094,-0.691 0.103,-0.701 0.116,-0.707C0.13,-0.713 0.146,-0.716 0.167,-0.716L0.55,-0.716C0.573,-0.716 0.59,-0.711 0.601,-0.7C0.613,-0.69 0.618,-0.677 0.618,-0.66C0.618,-0.643 0.613,-0.63 0.601,-0.619C0.59,-0.609 0.573,-0.604 0.55,-0.604Z" style="fill:rgb(218,120,23);fill-rule:nonzero;"/>
            </g>
        </g>
        <g transform="matrix(1,0,0,1,-1260.17,-179.953)">
            <g transform="matrix(125.64,0,0,125.64,1586.01,997.261)">
                <path d="M0.536,-0.081L0.502,-0.171L0.211,-0.171L0.177,-0.079C0.163,-0.043 0.152,-0.019 0.143,-0.007C0.133,0.006 0.118,0.012 0.096,0.012C0.078,0.012 0.062,0.006 0.048,-0.008C0.034,-0.021 0.027,-0.036 0.027,-0.053C0.027,-0.063 0.028,-0.073 0.032,-0.083C0.035,-0.094 0.04,-0.108 0.048,-0.127L0.231,-0.592C0.236,-0.605 0.242,-0.621 0.25,-0.64C0.257,-0.659 0.265,-0.674 0.273,-0.687C0.281,-0.699 0.292,-0.709 0.306,-0.717C0.319,-0.724 0.336,-0.728 0.356,-0.728C0.376,-0.728 0.393,-0.724 0.406,-0.717C0.42,-0.709 0.431,-0.699 0.439,-0.687C0.448,-0.675 0.455,-0.662 0.46,-0.648C0.466,-0.634 0.473,-0.616 0.482,-0.593L0.669,-0.131C0.684,-0.096 0.691,-0.07 0.691,-0.054C0.691,-0.038 0.684,-0.022 0.67,-0.009C0.656,0.005 0.64,0.012 0.62,0.012C0.609,0.012 0.599,0.01 0.591,0.006C0.583,0.002 0.576,-0.003 0.57,-0.01C0.565,-0.017 0.559,-0.028 0.552,-0.043C0.546,-0.057 0.541,-0.07 0.536,-0.081ZM0.249,-0.28L0.463,-0.28L0.355,-0.575L0.249,-0.28Z" style="fill:rgb(218,120,23);fill-rule:nonzero;"/>
            </g>
        </g>
        <g transform="matrix(1,0,0,1,-1260.17,-179.953)">
            <g transform="matrix(125.64,0,0,125.64,1665.34,997.261)">
                <path d="M0.543,-0.596L0.385,-0.596L0.385,-0.076C0.385,-0.046 0.378,-0.024 0.365,-0.01C0.351,0.005 0.334,0.012 0.313,0.012C0.292,0.012 0.274,0.005 0.26,-0.01C0.247,-0.024 0.24,-0.047 0.24,-0.076L0.24,-0.596L0.082,-0.596C0.057,-0.596 0.039,-0.602 0.027,-0.613C0.015,-0.623 0.009,-0.638 0.009,-0.656C0.009,-0.674 0.015,-0.689 0.028,-0.7C0.04,-0.71 0.058,-0.716 0.082,-0.716L0.543,-0.716C0.568,-0.716 0.587,-0.71 0.599,-0.699C0.611,-0.688 0.617,-0.674 0.617,-0.656C0.617,-0.638 0.611,-0.623 0.599,-0.613C0.586,-0.602 0.568,-0.596 0.543,-0.596Z" style="fill:rgb(218,120,23);fill-rule:nonzero;"/>
            </g>
        </g>
        <g transform="matrix(1,0,0,1,-1260.17,-179.953)">
            <g transform="matrix(125.64,0,0,125.64,1743.86,997.261)">
                <path d="M0.084,-0.076L0.084,-0.64C0.084,-0.669 0.091,-0.691 0.104,-0.706C0.117,-0.721 0.135,-0.728 0.156,-0.728C0.178,-0.728 0.195,-0.721 0.209,-0.706C0.222,-0.692 0.229,-0.67 0.229,-0.64L0.229,-0.076C0.229,-0.047 0.222,-0.024 0.209,-0.01C0.195,0.005 0.178,0.012 0.156,0.012C0.135,0.012 0.118,0.005 0.104,-0.01C0.091,-0.025 0.084,-0.047 0.084,-0.076Z" style="fill:rgb(218,120,23);fill-rule:nonzero;"/>
            </g>
        </g>
        <g transform="matrix(1,0,0,1,-1260.17,-179.953)">
            <g transform="matrix(125.64,0,0,125.64,1783.19,997.261)">
                <path d="M0.184,-0.633L0.346,-0.153L0.509,-0.636C0.517,-0.662 0.524,-0.679 0.528,-0.689C0.532,-0.699 0.539,-0.708 0.549,-0.716C0.559,-0.724 0.572,-0.728 0.589,-0.728C0.601,-0.728 0.613,-0.725 0.623,-0.719C0.634,-0.713 0.642,-0.704 0.648,-0.694C0.654,-0.684 0.657,-0.674 0.657,-0.663C0.657,-0.656 0.656,-0.648 0.654,-0.64C0.652,-0.632 0.65,-0.623 0.647,-0.615C0.644,-0.608 0.641,-0.599 0.638,-0.591L0.465,-0.123C0.459,-0.105 0.452,-0.088 0.446,-0.072C0.44,-0.056 0.433,-0.042 0.425,-0.03C0.417,-0.017 0.406,-0.007 0.392,0C0.379,0.008 0.362,0.012 0.343,0.012C0.323,0.012 0.307,0.008 0.293,0.001C0.28,-0.007 0.269,-0.017 0.26,-0.03C0.252,-0.042 0.245,-0.056 0.239,-0.072C0.233,-0.088 0.226,-0.105 0.22,-0.123L0.05,-0.587C0.047,-0.595 0.044,-0.604 0.041,-0.612C0.038,-0.62 0.035,-0.629 0.033,-0.638C0.031,-0.648 0.03,-0.656 0.03,-0.662C0.03,-0.679 0.036,-0.694 0.05,-0.708C0.063,-0.721 0.08,-0.728 0.1,-0.728C0.125,-0.728 0.142,-0.72 0.153,-0.705C0.163,-0.69 0.173,-0.666 0.184,-0.633Z" style="fill:rgb(218,120,23);fill-rule:nonzero;"/>
            </g>
        </g>
        <g transform="matrix(1,0,0,1,-1260.17,-179.953)">
            <g transform="matrix(1,0,0,1,1733.06,592.194)">
                <path d="M245.119,316.45C244.473,315.514 243.778,314.603 243.033,313.719C240.385,310.575 237.333,307.984 233.891,305.931C230.01,303.585 225.59,301.94 220.642,301.105C216.843,300.464 212.355,300.114 207.174,300.114C207.174,300.114 178.033,300.114 178.033,300.114C169.497,300.114 163.633,302.955 159.814,306.774C156.023,310.566 153.154,316.463 153.154,325.116C153.154,325.116 153.154,392.722 153.154,392.722C153.154,401.106 155.863,406.931 159.525,410.77C163.293,414.719 169.226,417.724 178.033,417.724L205.517,417.724C210.953,417.724 215.708,417.438 219.784,416.899C224.673,416.253 228.989,415.099 232.754,413.525C232.831,413.493 232.907,413.46 232.983,413.427C238.051,411.201 242.358,408.083 245.901,404.074C246.992,407.231 248.606,409.835 250.538,411.954C254.926,416.765 260.466,419.258 267.233,419.258C274.196,419.258 279.748,416.717 284.061,412.041C285.178,410.83 286.192,409.452 287.062,407.894C287.827,409.043 288.671,410.067 289.569,410.976C293.373,414.824 299.287,417.724 307.968,417.724L357.476,417.724C364.397,417.724 369.44,415.507 373.023,412.34C377.085,416.726 382.52,419.258 389.622,419.258C396.52,419.258 402.025,416.753 406.309,412.154C409.921,408.279 412.538,402.508 412.538,394.317L412.538,385.472C413.166,386.452 413.818,387.525 414.499,388.685C414.523,388.726 414.547,388.766 414.571,388.807L421.872,400.954C423.761,404.103 425.267,406.49 426.372,408.114C428.366,411.044 430.765,413.449 433.533,415.362C437.064,417.803 441.359,419.258 446.553,419.258C446.553,419.258 446.553,419.258 446.553,419.258C450.68,419.258 454.289,418.328 457.434,416.707C460.982,414.877 463.746,412.342 465.797,409.182C468.158,405.545 469.163,401.821 469.163,398.12C469.163,396.021 468.5,392.031 466.138,386.444C464.621,382.857 462.523,378.827 459.803,374.375C458.297,371.908 456.676,369.52 454.937,367.211C456.085,366.269 457.144,365.278 458.118,364.245C464.169,357.835 467.567,349.401 467.567,338.674C467.567,333.653 466.684,328.901 464.958,324.413C463.143,319.693 460.479,315.554 456.98,311.989C453.546,308.49 449.597,305.797 445.138,303.899C441.7,302.349 437.774,301.256 433.413,300.734C430.054,300.332 426.009,300.114 421.278,300.114C421.278,300.114 391.647,300.114 391.647,300.114C383.071,300.114 377.176,302.964 373.335,306.805C373.283,306.858 373.23,306.911 373.178,306.964C372.764,306.518 372.326,306.085 371.867,305.665C368.368,302.471 363.265,300.114 356.065,300.114C356.065,300.114 307.968,300.114 307.968,300.114C303.042,300.114 299.036,301.054 295.87,302.5C292.171,304.19 289.237,306.661 287.073,309.92C286.186,308.332 285.15,306.934 284.009,305.71C279.708,301.099 274.176,298.581 267.233,298.581C260.367,298.581 254.833,301.106 250.502,305.859C248.06,308.54 246.119,312.023 245.119,316.45ZM366.645,373.559C365.367,374.491 363.918,375.31 362.281,375.964C363.855,376.23 365.307,376.627 366.645,377.131L366.645,373.559ZM366.645,339.718C366.466,339.8 366.284,339.879 366.099,339.956C366.285,340.08 366.466,340.207 366.645,340.336L366.645,339.718Z" style="fill:rgb(68,68,68);"/>
            </g>
        </g>
        <g transform="matrix(1,0,0,1,-1260.17,-179.953)">
            <g transform="matrix(125.64,0,0,125.64,1891.76,994.174)">
                <path d="M0.384,-0L0.165,-0C0.133,-0 0.111,-0.007 0.097,-0.021C0.084,-0.035 0.077,-0.058 0.077,-0.089L0.077,-0.627C0.077,-0.659 0.084,-0.681 0.098,-0.695C0.112,-0.709 0.134,-0.716 0.165,-0.716L0.397,-0.716C0.431,-0.716 0.461,-0.714 0.486,-0.709C0.511,-0.705 0.533,-0.697 0.553,-0.685C0.57,-0.675 0.585,-0.662 0.598,-0.647C0.611,-0.631 0.621,-0.614 0.628,-0.595C0.635,-0.577 0.638,-0.557 0.638,-0.536C0.638,-0.465 0.602,-0.412 0.531,-0.379C0.625,-0.349 0.672,-0.291 0.672,-0.204C0.672,-0.164 0.662,-0.128 0.641,-0.096C0.621,-0.064 0.593,-0.04 0.558,-0.025C0.536,-0.016 0.511,-0.009 0.483,-0.006C0.455,-0.002 0.422,-0 0.384,-0ZM0.373,-0.318L0.222,-0.318L0.222,-0.109L0.378,-0.109C0.476,-0.109 0.525,-0.144 0.525,-0.215C0.525,-0.251 0.512,-0.277 0.487,-0.293C0.461,-0.31 0.424,-0.318 0.373,-0.318ZM0.222,-0.607L0.222,-0.422L0.355,-0.422C0.391,-0.422 0.419,-0.425 0.439,-0.432C0.458,-0.439 0.473,-0.452 0.484,-0.471C0.492,-0.485 0.496,-0.5 0.496,-0.517C0.496,-0.553 0.483,-0.577 0.458,-0.589C0.432,-0.601 0.393,-0.607 0.34,-0.607L0.222,-0.607Z" style="fill:white;fill-rule:nonzero;"/>
            </g>
        </g>
        <g transform="matrix(1,0,0,1,-1260.17,-179.953)">
            <g transform="matrix(125.64,0,0,125.64,1982.12,994.174)">
                <path d="M0.084,-0.076L0.084,-0.64C0.084,-0.669 0.091,-0.691 0.104,-0.706C0.117,-0.721 0.135,-0.728 0.156,-0.728C0.178,-0.728 0.195,-0.721 0.209,-0.706C0.222,-0.692 0.229,-0.67 0.229,-0.64L0.229,-0.076C0.229,-0.047 0.222,-0.024 0.209,-0.01C0.195,0.005 0.178,0.012 0.156,0.012C0.135,0.012 0.118,0.005 0.104,-0.01C0.091,-0.025 0.084,-0.047 0.084,-0.076Z" style="fill:white;fill-rule:nonzero;"/>
            </g>
        </g>
        <g transform="matrix(1,0,0,1,-1260.17,-179.953)">
            <g transform="matrix(125.64,0,0,125.64,2021.45,994.174)">
                <path d="M0.55,-0.604L0.223,-0.604L0.223,-0.428L0.524,-0.428C0.546,-0.428 0.563,-0.423 0.573,-0.413C0.584,-0.403 0.59,-0.39 0.59,-0.374C0.59,-0.358 0.584,-0.344 0.574,-0.334C0.563,-0.324 0.546,-0.319 0.524,-0.319L0.223,-0.319L0.223,-0.115L0.561,-0.115C0.584,-0.115 0.601,-0.11 0.613,-0.099C0.624,-0.089 0.63,-0.075 0.63,-0.057C0.63,-0.04 0.624,-0.026 0.613,-0.016C0.601,-0.005 0.584,-0 0.561,-0L0.167,-0C0.135,-0 0.113,-0.007 0.099,-0.021C0.085,-0.035 0.078,-0.058 0.078,-0.089L0.078,-0.627C0.078,-0.648 0.081,-0.665 0.087,-0.678C0.094,-0.691 0.103,-0.701 0.116,-0.707C0.13,-0.713 0.146,-0.716 0.167,-0.716L0.55,-0.716C0.573,-0.716 0.59,-0.711 0.601,-0.7C0.613,-0.69 0.618,-0.677 0.618,-0.66C0.618,-0.643 0.613,-0.63 0.601,-0.619C0.59,-0.609 0.573,-0.604 0.55,-0.604Z" style="fill:white;fill-rule:nonzero;"/>
            </g>
        </g>
        <g transform="matrix(1,0,0,1,-1260.17,-179.953)">
            <g transform="matrix(125.64,0,0,125.64,2105.25,994.174)">
                <path d="M0.273,-0.306L0.222,-0.306L0.222,-0.076C0.222,-0.046 0.215,-0.024 0.202,-0.009C0.189,0.005 0.171,0.012 0.15,0.012C0.127,0.012 0.109,0.005 0.096,-0.01C0.083,-0.025 0.077,-0.047 0.077,-0.076L0.077,-0.627C0.077,-0.658 0.084,-0.681 0.098,-0.695C0.112,-0.709 0.135,-0.716 0.166,-0.716L0.402,-0.716C0.434,-0.716 0.462,-0.714 0.485,-0.712C0.508,-0.709 0.529,-0.703 0.548,-0.695C0.57,-0.685 0.59,-0.672 0.607,-0.654C0.625,-0.637 0.638,-0.616 0.647,-0.593C0.656,-0.57 0.66,-0.545 0.66,-0.519C0.66,-0.466 0.645,-0.423 0.615,-0.391C0.585,-0.359 0.539,-0.337 0.478,-0.323C0.504,-0.31 0.528,-0.289 0.552,-0.263C0.575,-0.236 0.596,-0.208 0.615,-0.177C0.633,-0.147 0.647,-0.12 0.657,-0.096C0.668,-0.072 0.673,-0.055 0.673,-0.046C0.673,-0.036 0.67,-0.027 0.664,-0.018C0.658,-0.009 0.65,-0.001 0.639,0.004C0.629,0.01 0.617,0.012 0.603,0.012C0.587,0.012 0.573,0.008 0.562,0.001C0.551,-0.007 0.541,-0.017 0.533,-0.028C0.525,-0.04 0.515,-0.057 0.501,-0.08L0.443,-0.177C0.422,-0.212 0.403,-0.239 0.387,-0.258C0.371,-0.276 0.354,-0.289 0.337,-0.296C0.32,-0.303 0.299,-0.306 0.273,-0.306ZM0.356,-0.607L0.222,-0.607L0.222,-0.41L0.352,-0.41C0.387,-0.41 0.416,-0.413 0.44,-0.419C0.464,-0.425 0.482,-0.435 0.494,-0.45C0.507,-0.464 0.513,-0.484 0.513,-0.51C0.513,-0.53 0.508,-0.547 0.498,-0.562C0.488,-0.577 0.474,-0.589 0.456,-0.596C0.439,-0.603 0.406,-0.607 0.356,-0.607Z" style="fill:white;fill-rule:nonzero;"/>
            </g>
        </g>
        <g transform="matrix(1,0,0,1,-1260.17,-179.953)">
            <g transform="matrix(125.64,0,0,125.64,2204.29,996.261)">
                <path d="M0.157,0.012C0.137,0.012 0.12,0.006 0.105,-0.007C0.09,-0.02 0.083,-0.039 0.083,-0.062C0.083,-0.082 0.09,-0.099 0.104,-0.113C0.118,-0.128 0.135,-0.135 0.156,-0.135C0.176,-0.135 0.194,-0.128 0.208,-0.114C0.223,-0.099 0.23,-0.082 0.23,-0.062C0.23,-0.039 0.223,-0.021 0.208,-0.008C0.194,0.006 0.177,0.012 0.157,0.012Z" style="fill:rgb(218,120,23);fill-rule:nonzero;"/>
            </g>
        </g>
        <g transform="matrix(1,0,0,1,-1260.17,-179.953)">
            <g transform="matrix(125.64,0,0,125.64,2243.61,996.261)">
                <path d="M0.434,-0.064L0.434,-0.077C0.416,-0.057 0.399,-0.04 0.381,-0.027C0.364,-0.014 0.345,-0.004 0.324,0.002C0.304,0.009 0.282,0.012 0.258,0.012C0.226,0.012 0.196,0.005 0.169,-0.008C0.142,-0.022 0.118,-0.041 0.099,-0.066C0.079,-0.091 0.064,-0.12 0.053,-0.154C0.043,-0.188 0.038,-0.225 0.038,-0.264C0.038,-0.347 0.058,-0.412 0.099,-0.459C0.14,-0.506 0.193,-0.529 0.26,-0.529C0.298,-0.529 0.331,-0.522 0.357,-0.509C0.383,-0.496 0.409,-0.476 0.434,-0.448L0.434,-0.645C0.434,-0.672 0.44,-0.693 0.45,-0.707C0.461,-0.721 0.477,-0.728 0.497,-0.728C0.517,-0.728 0.533,-0.722 0.544,-0.709C0.555,-0.696 0.56,-0.677 0.56,-0.652L0.56,-0.064C0.56,-0.039 0.554,-0.02 0.542,-0.007C0.531,0.006 0.516,0.012 0.497,0.012C0.479,0.012 0.464,0.006 0.452,-0.008C0.44,-0.021 0.434,-0.04 0.434,-0.064ZM0.172,-0.26C0.172,-0.224 0.177,-0.193 0.189,-0.167C0.2,-0.142 0.215,-0.123 0.235,-0.11C0.254,-0.097 0.276,-0.091 0.299,-0.091C0.322,-0.091 0.344,-0.097 0.363,-0.109C0.382,-0.121 0.398,-0.14 0.409,-0.165C0.421,-0.191 0.427,-0.222 0.427,-0.26C0.427,-0.295 0.421,-0.326 0.409,-0.351C0.398,-0.377 0.382,-0.396 0.363,-0.41C0.343,-0.423 0.321,-0.43 0.298,-0.43C0.273,-0.43 0.252,-0.423 0.232,-0.409C0.213,-0.396 0.198,-0.376 0.188,-0.35C0.177,-0.324 0.172,-0.294 0.172,-0.26Z" style="fill:rgb(218,120,23);fill-rule:nonzero;"/>
            </g>
        </g>
        <g transform="matrix(1,0,0,1,-1260.17,-179.953)">
            <g transform="matrix(125.64,0,0,125.64,2322.13,996.261)">
                <path d="M0.441,-0.226L0.18,-0.226C0.181,-0.196 0.187,-0.169 0.198,-0.146C0.21,-0.123 0.226,-0.105 0.246,-0.094C0.266,-0.082 0.287,-0.076 0.311,-0.076C0.327,-0.076 0.342,-0.078 0.355,-0.082C0.368,-0.086 0.381,-0.091 0.393,-0.099C0.405,-0.107 0.417,-0.116 0.427,-0.125C0.438,-0.134 0.451,-0.146 0.468,-0.162C0.475,-0.168 0.484,-0.171 0.497,-0.171C0.511,-0.171 0.522,-0.167 0.53,-0.16C0.539,-0.152 0.543,-0.142 0.543,-0.128C0.543,-0.116 0.538,-0.102 0.529,-0.086C0.519,-0.07 0.505,-0.054 0.486,-0.039C0.467,-0.024 0.443,-0.012 0.414,-0.002C0.385,0.007 0.352,0.012 0.315,0.012C0.229,0.012 0.163,-0.012 0.115,-0.061C0.068,-0.11 0.044,-0.176 0.044,-0.26C0.044,-0.299 0.05,-0.336 0.062,-0.369C0.073,-0.403 0.09,-0.432 0.113,-0.456C0.135,-0.48 0.163,-0.499 0.196,-0.511C0.229,-0.524 0.265,-0.531 0.305,-0.531C0.357,-0.531 0.402,-0.52 0.439,-0.498C0.476,-0.476 0.504,-0.447 0.523,-0.413C0.542,-0.378 0.551,-0.342 0.551,-0.306C0.551,-0.273 0.541,-0.251 0.522,-0.241C0.503,-0.231 0.476,-0.226 0.441,-0.226ZM0.18,-0.302L0.422,-0.302C0.419,-0.347 0.406,-0.381 0.385,-0.404C0.364,-0.427 0.336,-0.438 0.301,-0.438C0.268,-0.438 0.24,-0.427 0.219,-0.404C0.198,-0.381 0.185,-0.347 0.18,-0.302Z" style="fill:rgb(218,120,23);fill-rule:nonzero;"/>
            </g>
        </g>
    </g>
</svg>
